<svg xmlns="http://www.w3.org/2000/svg" version="1.0" viewBox="0 0 977.000000 286.000000" preserveAspectRatio="xMidYMid meet">

    <g transform="translate(0.000000,286.000000) scale(0.100000,-0.100000)" fill="#ffffff" stroke="none">
        <path d="M7350 2841 c-126 -39 -227 -161 -245 -298 -8 -62 15 -161 49 -213                     131 -197 396 -220 551 -47 84 93 109 232 63 354 -29 79 -112 162 -191 191 -59                     23 -174 29 -227 13z" fill="#ffffff"/>
        <path d="M7993 1468 c3 -1147 -1 -1079 70 -1212 94 -177 243 -242 532 -233                     163 5 233 21 348 78 l57 29 0 221 c0 207 -1 221 -17 214 -79 -33 -120 -45                     -189 -54 -122 -16 -185 6 -229 80 -19 32 -20 55 -23 487 l-3 452 230 0 231 0                     0 235 0 235 -230 0 -230 0 0 250 0 250 -275 0 -276 0 4 -1032z" fill="#ffffff"/>
        <path d="M884 2025 c-329 -51 -613 -247 -763 -527 -88 -162 -128 -349 -118                     -538 26 -443 323 -801 765 -921 100 -27 357 -37 470 -19 214 34 406 128 560                     274 133 126 224 274 279 453 25 83 27 100 27 278 0 179 -1 195 -28 280 -33                     107 -90 225 -150 309 -55 76 -172 190 -251 243 -221 148 -515 211 -791 168z                     m295 -480 c138 -36 268 -142 329 -267 134 -274 30 -625 -221 -747 -24 -12 -78                     -29 -118 -37 -270 -57 -533 109 -604 383 -18 67 -20 210 -4 285 38 182 179                     336 350 382 70 19 200 20 268 1z" fill="#ffffff"/>
        <path d="M6100 2025 c-36 -8 -103 -33 -150 -56 -70 -34 -102 -59 -182 -139                     l-98 -97 0 133 0 134 -275 0 -275 0 0 -975 0 -975 275 0 274 0 3 607 c3 600 3                     609 25 662 33 80 66 124 119 160 61 40 111 54 199 54 156 1 249 -60 311 -203                     18 -43 19 -78 22 -663 l3 -617 280 0 280 0 -4 708 c-3 605 -6 716 -20 773 -64                     261 -213 424 -442 484 -87 23 -265 28 -345 10z" fill="#ffffff"/>
        <path d="M3256 1993 c-3 -10 -82 -268 -176 -573 -94 -305 -173 -563 -176 -573                     -3 -10 -8 -16 -11 -14 -2 3 -73 265 -157 583 l-153 579 -283 3 c-239 2 -281 0                     -277 -12 6 -15 574 -1871 589 -1924 l9 -32 244 0 c223 0 245 2 253 18 5 9 92                     277 193 594 101 318 186 574 190 570 4 -4 86 -261 183 -572 97 -311 181 -575                     186 -588 l10 -22 247 2 247 3 303 980 c167 539 303 981 303 982 0 2 -124 3                     -275 3 l-274 0 -9 -32 c-5 -18 -76 -282 -157 -585 -82 -304 -152 -553 -155                     -553 -3 0 -70 211 -150 468 -79 257 -161 522 -183 590 l-38 122 -239 0 c-219                     0 -239 -1 -244 -17z" fill="#ffffff"/>
        <path d="M7170 1025 l0 -975 280 0 280 0 0 975 0 975 -280 0 -280 0 0 -975z" fill="#ffffff"/>
        <path d="M9405 581 c-94 -24 -181 -104 -211 -193 -34 -103 1 -236 80 -306 59                     -51 95 -65 181 -70 104 -6 166 19 230 90 57 63 79 129 73 217 -8 106 -68 195                     -165 242 -47 23 -140 33 -188 20z" fill="#ffffff"/>
    </g>
</svg>